<svg width="22" height="23" viewBox="0 0 22 23" fill="none" xmlns="http://www.w3.org/2000/svg">
<path d="M16 1.31445H6C3.23858 1.31445 1 3.55155 1 6.31116V16.3046C1 19.0642 3.23858 21.3013 6 21.3013H16C18.7614 21.3013 21 19.0642 21 16.3046V6.31116C21 3.55155 18.7614 1.31445 16 1.31445Z" stroke="#224586" stroke-width="2" stroke-linecap="round" stroke-linejoin="round"/>
<path d="M15 10.6783C15.1234 11.51 14.9813 12.3593 14.5938 13.1056C14.2063 13.8518 13.5932 14.457 12.8416 14.835C12.0901 15.213 11.2385 15.3445 10.4078 15.2109C9.57713 15.0774 8.80977 14.6855 8.21485 14.091C7.61993 13.4965 7.22774 12.7297 7.09408 11.8997C6.96042 11.0696 7.09208 10.2186 7.47034 9.46761C7.8486 8.71664 8.4542 8.10398 9.20099 7.71676C9.94779 7.32955 10.7978 7.1875 11.63 7.31082C12.4789 7.43661 13.2649 7.8319 13.8717 8.4383C14.4785 9.04469 14.8741 9.83004 15 10.6783Z" stroke="#224586" stroke-width="2" stroke-linecap="round" stroke-linejoin="round"/>
<path d="M16.5 5.81104H16.51" stroke="#224586" stroke-width="2" stroke-linecap="round" stroke-linejoin="round"/>
</svg>
